<mxfile host="drawio-plugin" modified="2021-07-15T14:51:14.859Z" agent="5.0 (Macintosh; Intel Mac OS X 11_2_2) AppleWebKit/537.36 (KHTML, like Gecko) Chrome/87.0.4280.141 Safari/537.36" etag="yMFQhd3kAQS-1DGDaV7M" version="14.7.4" type="embed"><diagram id="23iRSUPoRavnBvh4doch" name="Page-1"><mxGraphModel dx="679" dy="1579" grid="1" gridSize="10" guides="1" tooltips="1" connect="1" arrows="1" fold="1" page="1" pageScale="1" pageWidth="827" pageHeight="1169" math="0" shadow="0"><root><mxCell id="0"/><mxCell id="1" parent="0"/><mxCell id="29" value="factory" style="shape=umlFrame;whiteSpace=wrap;html=1;" vertex="1" parent="1"><mxGeometry x="20" y="30" width="780" height="610" as="geometry"/></mxCell><mxCell id="2" value="Item" style="swimlane;fontStyle=1;align=center;verticalAlign=top;childLayout=stackLayout;horizontal=1;startSize=26;horizontalStack=0;resizeParent=1;resizeParentMax=0;resizeLast=0;collapsible=1;marginBottom=0;" vertex="1" parent="1"><mxGeometry x="130" y="80" width="160" height="86" as="geometry"/></mxCell><mxCell id="3" value="+ caption" style="text;strokeColor=none;fillColor=none;align=left;verticalAlign=top;spacingLeft=4;spacingRight=4;overflow=hidden;rotatable=0;points=[[0,0.5],[1,0.5]];portConstraint=eastwest;" vertex="1" parent="2"><mxGeometry y="26" width="160" height="26" as="geometry"/></mxCell><mxCell id="4" value="" style="line;strokeWidth=1;fillColor=none;align=left;verticalAlign=middle;spacingTop=-1;spacingLeft=3;spacingRight=3;rotatable=0;labelPosition=right;points=[];portConstraint=eastwest;" vertex="1" parent="2"><mxGeometry y="52" width="160" height="8" as="geometry"/></mxCell><mxCell id="5" value="+ makeHTML" style="text;strokeColor=none;fillColor=none;align=left;verticalAlign=top;spacingLeft=4;spacingRight=4;overflow=hidden;rotatable=0;points=[[0,0.5],[1,0.5]];portConstraint=eastwest;" vertex="1" parent="2"><mxGeometry y="60" width="160" height="26" as="geometry"/></mxCell><mxCell id="6" value="Link" style="swimlane;fontStyle=1;align=center;verticalAlign=top;childLayout=stackLayout;horizontal=1;startSize=26;horizontalStack=0;resizeParent=1;resizeParentMax=0;resizeLast=0;collapsible=1;marginBottom=0;" vertex="1" parent="1"><mxGeometry x="90" y="260" width="160" height="86" as="geometry"/></mxCell><mxCell id="7" value="+ url" style="text;strokeColor=none;fillColor=none;align=left;verticalAlign=top;spacingLeft=4;spacingRight=4;overflow=hidden;rotatable=0;points=[[0,0.5],[1,0.5]];portConstraint=eastwest;" vertex="1" parent="6"><mxGeometry y="26" width="160" height="26" as="geometry"/></mxCell><mxCell id="8" value="" style="line;strokeWidth=1;fillColor=none;align=left;verticalAlign=middle;spacingTop=-1;spacingLeft=3;spacingRight=3;rotatable=0;labelPosition=right;points=[];portConstraint=eastwest;" vertex="1" parent="6"><mxGeometry y="52" width="160" height="8" as="geometry"/></mxCell><mxCell id="9" value="+ makeHTML" style="text;strokeColor=none;fillColor=none;align=left;verticalAlign=top;spacingLeft=4;spacingRight=4;overflow=hidden;rotatable=0;points=[[0,0.5],[1,0.5]];portConstraint=eastwest;" vertex="1" parent="6"><mxGeometry y="60" width="160" height="26" as="geometry"/></mxCell><mxCell id="10" value="Tray" style="swimlane;fontStyle=1;align=center;verticalAlign=top;childLayout=stackLayout;horizontal=1;startSize=26;horizontalStack=0;resizeParent=1;resizeParentMax=0;resizeLast=0;collapsible=1;marginBottom=0;" vertex="1" parent="1"><mxGeometry x="300" y="260" width="160" height="112" as="geometry"/></mxCell><mxCell id="11" value="+ tray" style="text;strokeColor=none;fillColor=none;align=left;verticalAlign=top;spacingLeft=4;spacingRight=4;overflow=hidden;rotatable=0;points=[[0,0.5],[1,0.5]];portConstraint=eastwest;" vertex="1" parent="10"><mxGeometry y="26" width="160" height="26" as="geometry"/></mxCell><mxCell id="12" value="" style="line;strokeWidth=1;fillColor=none;align=left;verticalAlign=middle;spacingTop=-1;spacingLeft=3;spacingRight=3;rotatable=0;labelPosition=right;points=[];portConstraint=eastwest;" vertex="1" parent="10"><mxGeometry y="52" width="160" height="8" as="geometry"/></mxCell><mxCell id="13" value="+ add" style="text;strokeColor=none;fillColor=none;align=left;verticalAlign=top;spacingLeft=4;spacingRight=4;overflow=hidden;rotatable=0;points=[[0,0.5],[1,0.5]];portConstraint=eastwest;" vertex="1" parent="10"><mxGeometry y="60" width="160" height="26" as="geometry"/></mxCell><mxCell id="14" value="+ makeHTML" style="text;strokeColor=none;fillColor=none;align=left;verticalAlign=top;spacingLeft=4;spacingRight=4;overflow=hidden;rotatable=0;points=[[0,0.5],[1,0.5]];portConstraint=eastwest;" vertex="1" parent="10"><mxGeometry y="86" width="160" height="26" as="geometry"/></mxCell><mxCell id="15" value="Page" style="swimlane;fontStyle=1;align=center;verticalAlign=top;childLayout=stackLayout;horizontal=1;startSize=26;horizontalStack=0;resizeParent=1;resizeParentMax=0;resizeLast=0;collapsible=1;marginBottom=0;" vertex="1" parent="1"><mxGeometry x="610" y="260" width="160" height="164" as="geometry"/></mxCell><mxCell id="16" value="+ title" style="text;strokeColor=none;fillColor=none;align=left;verticalAlign=top;spacingLeft=4;spacingRight=4;overflow=hidden;rotatable=0;points=[[0,0.5],[1,0.5]];portConstraint=eastwest;" vertex="1" parent="15"><mxGeometry y="26" width="160" height="26" as="geometry"/></mxCell><mxCell id="20" value="+ author" style="text;strokeColor=none;fillColor=none;align=left;verticalAlign=top;spacingLeft=4;spacingRight=4;overflow=hidden;rotatable=0;points=[[0,0.5],[1,0.5]];portConstraint=eastwest;" vertex="1" parent="15"><mxGeometry y="52" width="160" height="26" as="geometry"/></mxCell><mxCell id="17" value="" style="line;strokeWidth=1;fillColor=none;align=left;verticalAlign=middle;spacingTop=-1;spacingLeft=3;spacingRight=3;rotatable=0;labelPosition=right;points=[];portConstraint=eastwest;" vertex="1" parent="15"><mxGeometry y="78" width="160" height="8" as="geometry"/></mxCell><mxCell id="18" value="+ add" style="text;strokeColor=none;fillColor=none;align=left;verticalAlign=top;spacingLeft=4;spacingRight=4;overflow=hidden;rotatable=0;points=[[0,0.5],[1,0.5]];portConstraint=eastwest;" vertex="1" parent="15"><mxGeometry y="86" width="160" height="26" as="geometry"/></mxCell><mxCell id="21" value="+ output" style="text;strokeColor=none;fillColor=none;align=left;verticalAlign=top;spacingLeft=4;spacingRight=4;overflow=hidden;rotatable=0;points=[[0,0.5],[1,0.5]];portConstraint=eastwest;" vertex="1" parent="15"><mxGeometry y="112" width="160" height="26" as="geometry"/></mxCell><mxCell id="19" value="+ makeHTML" style="text;strokeColor=none;fillColor=none;align=left;verticalAlign=top;spacingLeft=4;spacingRight=4;overflow=hidden;rotatable=0;points=[[0,0.5],[1,0.5]];portConstraint=eastwest;" vertex="1" parent="15"><mxGeometry y="138" width="160" height="26" as="geometry"/></mxCell><mxCell id="22" value="Factory" style="swimlane;fontStyle=1;align=center;verticalAlign=top;childLayout=stackLayout;horizontal=1;startSize=26;horizontalStack=0;resizeParent=1;resizeParentMax=0;resizeLast=0;collapsible=1;marginBottom=0;" vertex="1" parent="1"><mxGeometry x="460" y="473" width="160" height="138" as="geometry"/></mxCell><mxCell id="24" value="" style="line;strokeWidth=1;fillColor=none;align=left;verticalAlign=middle;spacingTop=-1;spacingLeft=3;spacingRight=3;rotatable=0;labelPosition=right;points=[];portConstraint=eastwest;" vertex="1" parent="22"><mxGeometry y="26" width="160" height="8" as="geometry"/></mxCell><mxCell id="25" value="+ getFactory" style="text;strokeColor=none;fillColor=none;align=left;verticalAlign=top;spacingLeft=4;spacingRight=4;overflow=hidden;rotatable=0;points=[[0,0.5],[1,0.5]];portConstraint=eastwest;" vertex="1" parent="22"><mxGeometry y="34" width="160" height="26" as="geometry"/></mxCell><mxCell id="26" value="+ createLink" style="text;strokeColor=none;fillColor=none;align=left;verticalAlign=top;spacingLeft=4;spacingRight=4;overflow=hidden;rotatable=0;points=[[0,0.5],[1,0.5]];portConstraint=eastwest;" vertex="1" parent="22"><mxGeometry y="60" width="160" height="26" as="geometry"/></mxCell><mxCell id="27" value="+ createTray" style="text;strokeColor=none;fillColor=none;align=left;verticalAlign=top;spacingLeft=4;spacingRight=4;overflow=hidden;rotatable=0;points=[[0,0.5],[1,0.5]];portConstraint=eastwest;" vertex="1" parent="22"><mxGeometry y="86" width="160" height="26" as="geometry"/></mxCell><mxCell id="28" value="+ createPage" style="text;strokeColor=none;fillColor=none;align=left;verticalAlign=top;spacingLeft=4;spacingRight=4;overflow=hidden;rotatable=0;points=[[0,0.5],[1,0.5]];portConstraint=eastwest;" vertex="1" parent="22"><mxGeometry y="112" width="160" height="26" as="geometry"/></mxCell><mxCell id="30" value="listfactory" style="shape=umlFrame;whiteSpace=wrap;html=1;" vertex="1" parent="1"><mxGeometry x="20" y="670" width="780" height="430" as="geometry"/></mxCell><mxCell id="31" value="ListLink" style="swimlane;fontStyle=1;align=center;verticalAlign=top;childLayout=stackLayout;horizontal=1;startSize=26;horizontalStack=0;resizeParent=1;resizeParentMax=0;resizeLast=0;collapsible=1;marginBottom=0;" vertex="1" parent="1"><mxGeometry x="80" y="730" width="160" height="60" as="geometry"/></mxCell><mxCell id="32" value="" style="line;strokeWidth=1;fillColor=none;align=left;verticalAlign=middle;spacingTop=-1;spacingLeft=3;spacingRight=3;rotatable=0;labelPosition=right;points=[];portConstraint=eastwest;" vertex="1" parent="31"><mxGeometry y="26" width="160" height="8" as="geometry"/></mxCell><mxCell id="33" value="+ makeHTML" style="text;strokeColor=none;fillColor=none;align=left;verticalAlign=top;spacingLeft=4;spacingRight=4;overflow=hidden;rotatable=0;points=[[0,0.5],[1,0.5]];portConstraint=eastwest;" vertex="1" parent="31"><mxGeometry y="34" width="160" height="26" as="geometry"/></mxCell><mxCell id="37" value="ListTray" style="swimlane;fontStyle=1;align=center;verticalAlign=top;childLayout=stackLayout;horizontal=1;startSize=26;horizontalStack=0;resizeParent=1;resizeParentMax=0;resizeLast=0;collapsible=1;marginBottom=0;" vertex="1" parent="1"><mxGeometry x="300" y="730" width="160" height="60" as="geometry"/></mxCell><mxCell id="38" value="" style="line;strokeWidth=1;fillColor=none;align=left;verticalAlign=middle;spacingTop=-1;spacingLeft=3;spacingRight=3;rotatable=0;labelPosition=right;points=[];portConstraint=eastwest;" vertex="1" parent="37"><mxGeometry y="26" width="160" height="8" as="geometry"/></mxCell><mxCell id="39" value="+ makeHTML" style="text;strokeColor=none;fillColor=none;align=left;verticalAlign=top;spacingLeft=4;spacingRight=4;overflow=hidden;rotatable=0;points=[[0,0.5],[1,0.5]];portConstraint=eastwest;" vertex="1" parent="37"><mxGeometry y="34" width="160" height="26" as="geometry"/></mxCell><mxCell id="40" value="ListPage" style="swimlane;fontStyle=1;align=center;verticalAlign=top;childLayout=stackLayout;horizontal=1;startSize=26;horizontalStack=0;resizeParent=1;resizeParentMax=0;resizeLast=0;collapsible=1;marginBottom=0;" vertex="1" parent="1"><mxGeometry x="610" y="730" width="160" height="60" as="geometry"/></mxCell><mxCell id="41" value="" style="line;strokeWidth=1;fillColor=none;align=left;verticalAlign=middle;spacingTop=-1;spacingLeft=3;spacingRight=3;rotatable=0;labelPosition=right;points=[];portConstraint=eastwest;" vertex="1" parent="40"><mxGeometry y="26" width="160" height="8" as="geometry"/></mxCell><mxCell id="42" value="+ makeHTML" style="text;strokeColor=none;fillColor=none;align=left;verticalAlign=top;spacingLeft=4;spacingRight=4;overflow=hidden;rotatable=0;points=[[0,0.5],[1,0.5]];portConstraint=eastwest;" vertex="1" parent="40"><mxGeometry y="34" width="160" height="26" as="geometry"/></mxCell><mxCell id="43" value="ListFactory" style="swimlane;fontStyle=1;align=center;verticalAlign=top;childLayout=stackLayout;horizontal=1;startSize=26;horizontalStack=0;resizeParent=1;resizeParentMax=0;resizeLast=0;collapsible=1;marginBottom=0;" vertex="1" parent="1"><mxGeometry x="460" y="920" width="160" height="112" as="geometry"/></mxCell><mxCell id="44" value="" style="line;strokeWidth=1;fillColor=none;align=left;verticalAlign=middle;spacingTop=-1;spacingLeft=3;spacingRight=3;rotatable=0;labelPosition=right;points=[];portConstraint=eastwest;" vertex="1" parent="43"><mxGeometry y="26" width="160" height="8" as="geometry"/></mxCell><mxCell id="46" value="+ createLink" style="text;strokeColor=none;fillColor=none;align=left;verticalAlign=top;spacingLeft=4;spacingRight=4;overflow=hidden;rotatable=0;points=[[0,0.5],[1,0.5]];portConstraint=eastwest;" vertex="1" parent="43"><mxGeometry y="34" width="160" height="26" as="geometry"/></mxCell><mxCell id="47" value="+ createTray" style="text;strokeColor=none;fillColor=none;align=left;verticalAlign=top;spacingLeft=4;spacingRight=4;overflow=hidden;rotatable=0;points=[[0,0.5],[1,0.5]];portConstraint=eastwest;" vertex="1" parent="43"><mxGeometry y="60" width="160" height="26" as="geometry"/></mxCell><mxCell id="48" value="+ createPage" style="text;strokeColor=none;fillColor=none;align=left;verticalAlign=top;spacingLeft=4;spacingRight=4;overflow=hidden;rotatable=0;points=[[0,0.5],[1,0.5]];portConstraint=eastwest;" vertex="1" parent="43"><mxGeometry y="86" width="160" height="26" as="geometry"/></mxCell><mxCell id="50" value="Extends" style="endArrow=block;endSize=16;endFill=0;html=1;exitX=0.5;exitY=0;exitDx=0;exitDy=0;" edge="1" parent="1" source="43" target="28"><mxGeometry width="160" relative="1" as="geometry"><mxPoint x="520" y="890" as="sourcePoint"/><mxPoint x="680" y="890" as="targetPoint"/></mxGeometry></mxCell><mxCell id="51" value="" style="endArrow=diamondThin;endFill=0;endSize=24;html=1;exitX=1;exitY=0.5;exitDx=0;exitDy=0;entryX=0.5;entryY=0;entryDx=0;entryDy=0;" edge="1" parent="1" source="3" target="10"><mxGeometry width="160" relative="1" as="geometry"><mxPoint x="410" y="200" as="sourcePoint"/><mxPoint x="400" y="270" as="targetPoint"/><Array as="points"><mxPoint x="380" y="119"/><mxPoint x="380" y="169"/></Array></mxGeometry></mxCell><mxCell id="52" value="Extends" style="endArrow=block;endSize=16;endFill=0;html=1;exitX=0.5;exitY=0;exitDx=0;exitDy=0;" edge="1" parent="1" source="40" target="19"><mxGeometry width="160" relative="1" as="geometry"><mxPoint x="780" y="500" as="sourcePoint"/><mxPoint x="940" y="500" as="targetPoint"/></mxGeometry></mxCell><mxCell id="53" value="Extends" style="endArrow=block;endSize=16;endFill=0;html=1;exitX=0.5;exitY=0;exitDx=0;exitDy=0;entryX=0.413;entryY=0.962;entryDx=0;entryDy=0;entryPerimeter=0;" edge="1" parent="1" source="31" target="9"><mxGeometry width="160" relative="1" as="geometry"><mxPoint x="130" y="550" as="sourcePoint"/><mxPoint x="290" y="550" as="targetPoint"/></mxGeometry></mxCell><mxCell id="57" value="Extends" style="endArrow=block;endSize=16;endFill=0;html=1;exitX=0.5;exitY=0;exitDx=0;exitDy=0;" edge="1" parent="1" source="37" target="14"><mxGeometry width="160" relative="1" as="geometry"><mxPoint x="240" y="570" as="sourcePoint"/><mxPoint x="400" y="570" as="targetPoint"/></mxGeometry></mxCell><mxCell id="58" value="Creates" style="html=1;verticalAlign=bottom;endArrow=open;dashed=1;endSize=8;entryX=0.463;entryY=0.962;entryDx=0;entryDy=0;entryPerimeter=0;exitX=1;exitY=0.5;exitDx=0;exitDy=0;" edge="1" parent="1" source="47" target="42"><mxGeometry relative="1" as="geometry"><mxPoint x="910" y="940" as="sourcePoint"/><mxPoint x="830" y="940" as="targetPoint"/><Array as="points"><mxPoint x="684" y="993"/></Array></mxGeometry></mxCell><mxCell id="59" value="Creates" style="html=1;verticalAlign=bottom;endArrow=open;dashed=1;endSize=8;exitX=0;exitY=0.5;exitDx=0;exitDy=0;entryX=0.488;entryY=1;entryDx=0;entryDy=0;entryPerimeter=0;" edge="1" parent="1" source="47" target="39"><mxGeometry relative="1" as="geometry"><mxPoint x="350" y="860" as="sourcePoint"/><mxPoint x="270" y="860" as="targetPoint"/><Array as="points"><mxPoint x="378" y="993"/></Array></mxGeometry></mxCell><mxCell id="60" value="Creates" style="html=1;verticalAlign=bottom;endArrow=open;dashed=1;endSize=8;entryX=0.513;entryY=1.077;entryDx=0;entryDy=0;entryPerimeter=0;exitX=0;exitY=0.5;exitDx=0;exitDy=0;" edge="1" parent="1" source="48" target="33"><mxGeometry relative="1" as="geometry"><mxPoint x="240" y="940" as="sourcePoint"/><mxPoint x="160" y="940" as="targetPoint"/><Array as="points"><mxPoint x="162" y="1019"/></Array></mxGeometry></mxCell><mxCell id="61" value="Extends" style="endArrow=block;endSize=16;endFill=0;html=1;exitX=0.5;exitY=0;exitDx=0;exitDy=0;entryX=0.481;entryY=1;entryDx=0;entryDy=0;entryPerimeter=0;" edge="1" parent="1" source="6" target="5"><mxGeometry width="160" relative="1" as="geometry"><mxPoint x="230" y="220" as="sourcePoint"/><mxPoint x="390" y="220" as="targetPoint"/><Array as="points"><mxPoint x="170" y="200"/><mxPoint x="207" y="200"/></Array></mxGeometry></mxCell><mxCell id="62" value="Extends" style="endArrow=block;endSize=16;endFill=0;html=1;exitX=0.25;exitY=0;exitDx=0;exitDy=0;" edge="1" parent="1" source="10"><mxGeometry width="160" relative="1" as="geometry"><mxPoint x="450" y="150" as="sourcePoint"/><mxPoint x="210" y="167" as="targetPoint"/><Array as="points"><mxPoint x="340" y="200"/><mxPoint x="210" y="200"/></Array></mxGeometry></mxCell><mxCell id="63" value="Creates" style="html=1;verticalAlign=bottom;endArrow=open;dashed=1;endSize=8;exitX=0;exitY=0.5;exitDx=0;exitDy=0;" edge="1" parent="1" source="25" target="9"><mxGeometry relative="1" as="geometry"><mxPoint x="380" y="500" as="sourcePoint"/><mxPoint x="300" y="500" as="targetPoint"/><Array as="points"><mxPoint x="170" y="520"/></Array></mxGeometry></mxCell><mxCell id="64" value="Creates" style="html=1;verticalAlign=bottom;endArrow=open;dashed=1;endSize=8;entryX=1;entryY=0.5;entryDx=0;entryDy=0;exitX=0.5;exitY=0;exitDx=0;exitDy=0;" edge="1" parent="1" source="22" target="11"><mxGeometry relative="1" as="geometry"><mxPoint x="550" y="430" as="sourcePoint"/><mxPoint x="470" y="430" as="targetPoint"/><Array as="points"><mxPoint x="540" y="299"/></Array></mxGeometry></mxCell><mxCell id="65" value="Creates" style="html=1;verticalAlign=bottom;endArrow=open;dashed=1;endSize=8;entryX=0.3;entryY=1;entryDx=0;entryDy=0;entryPerimeter=0;exitX=1;exitY=0.5;exitDx=0;exitDy=0;" edge="1" parent="1" source="26" target="19"><mxGeometry relative="1" as="geometry"><mxPoint x="810" y="510" as="sourcePoint"/><mxPoint x="730" y="510" as="targetPoint"/><Array as="points"><mxPoint x="658" y="546"/></Array></mxGeometry></mxCell><mxCell id="66" value="&lt;h1&gt;抽象工厂方法&lt;/h1&gt;&lt;p&gt;将抽象的零件组合成抽象产品的抽象工厂&lt;/p&gt;" style="text;html=1;strokeColor=none;fillColor=none;spacing=5;spacingTop=-20;whiteSpace=wrap;overflow=hidden;rounded=0;" vertex="1" parent="1"><mxGeometry x="200" y="-100" width="320" height="80" as="geometry"/></mxCell></root></mxGraphModel></diagram></mxfile>